# xmcd
#
# Track frame offsets: 
#        183
#        16333
#        28308
#        44095
#        64683
#        78145
#        101808
#        118908
#        134283
#        155583
#        174783
#        189633
#
# Disc length: 2790 seconds
#
# Revision: 2
# Processed by: cddbd v1.5.2PL0 Copyright (c) Steve Scherf et al.
# Submitted via: ExactAudioCopyFreeDBPlugin 1.0
#
DISCID=a10ae40c
DTITLE=Various Artist - Zevenster
DYEAR=1980
DGENRE=80's
TTITLE0=André Hazes - Ik Meen 't
TTITLE1=Maywood - Mother How Are You Today
TTITLE2=The Shorts - Comment ca va
TTITLE3=Lucifer - House For Sale
TTITLE4=Rob De Nijs - Zondag
TTITLE5=The Cats - Where Have I Been Wrong
TTITLE6=André Hazes - Zondag
TTITLE7=Maywood - Late At Night
TTITLE8=Drukwerk - Hee Amsterdam
TTITLE9=Margriet Eshuys - Selfpity
TTITLE10=Rob De Nijs - Liever Dan Lieveling
TTITLE11=The Cats - The End Of The Show
EXTD=
EXTT0=
EXTT1=
EXTT2=
EXTT3=
EXTT4=
EXTT5=
EXTT6=
EXTT7=
EXTT8=
EXTT9=
EXTT10=
EXTT11=
PLAYORDER=
